<svg xmlns="http://www.w3.org/2000/svg" width="90.984" height="90.788" viewBox="0 0 90.984 90.788"><g transform="translate(0 -0.516)"><g transform="translate(0 0.516)"><g transform="translate(0 0)"><rect width="9.118" height="3.039" transform="translate(65.344 60.59)"/><rect width="9.118" height="3.039" transform="translate(53.187 60.59)"/><rect width="9.118" height="3.039" transform="translate(41.03 60.59)"/><path d="M89.638,31.934,59.569,1.861A4.539,4.539,0,0,0,56.338.516h-.014a4.5,4.5,0,0,0-3.2,1.345l-31.9,31.892H4.559A4.559,4.559,0,0,0,0,38.312V80.861A4.559,4.559,0,0,0,4.559,85.42H27.074l4.535,4.539A4.539,4.539,0,0,0,34.839,91.3h.012a4.5,4.5,0,0,0,3.206-1.345L42.6,85.42H77.5a4.559,4.559,0,0,0,4.559-4.559v-34.9l7.571-7.571a4.535,4.535,0,0,0,.008-6.457ZM70.307,16.9,53.454,33.753H40.55l23.3-23.3ZM55.272,4a1.5,1.5,0,0,1,2.119-.025L57.416,4l4.29,4.3L36.251,33.753H25.52ZM35.906,87.817a1.478,1.478,0,0,1-1.064.456,1.519,1.519,0,0,1-1.082-.456l-2.387-2.4H38.3ZM79.02,80.861a1.52,1.52,0,0,1-1.52,1.52H4.559a1.52,1.52,0,0,1-1.52-1.52V59.587H79.02Zm0-24.314H3.039V47.43H79.02Zm0-12.157H3.039V38.312a1.52,1.52,0,0,1,1.52-1.52H77.5a1.52,1.52,0,0,1,1.52,1.52Zm8.469-8.156h0l-5.43,5.43V38.312A4.559,4.559,0,0,0,77.5,33.753H57.746l14.7-14.7L87.483,34.083a1.519,1.519,0,0,1,.456,1.087A1.49,1.49,0,0,1,87.489,36.235Z" transform="translate(0 -0.516)"/><path d="M33.85,370.168a6.077,6.077,0,0,0,.622-.622,6.025,6.025,0,0,0,8,1.03,6.179,6.179,0,0,0,2.638-5.009,6.079,6.079,0,0,0-6.078-6.078,4.608,4.608,0,0,0-.9.076l-.04.011h-.044a6,6,0,0,0-3.576,2.018,6.078,6.078,0,1,0-.622,8.574Zm4.8-7.607a1.835,1.835,0,0,1,.384-.032,3.039,3.039,0,0,1,3.039,3.039,2.98,2.98,0,0,1-.6,1.783c-.055.074-.1.152-.16.229-.011.012-.026.02-.038.032a3.021,3.021,0,1,1-2.629-5.051Zm-8.733-.032a3.039,3.039,0,1,1-3.039,3.039A3.039,3.039,0,0,1,29.913,362.529Z" transform="translate(-19.275 -291.302)"/></g></g></g></svg>