<svg xmlns="http://www.w3.org/2000/svg" width="416.351" height="563.037" viewBox="0 0 416.351 563.037">
  <g id="Path_45" data-name="Path 45" transform="translate(1.598)" fill="#275dad">
    <path d="M -1.09489369392395 561.8883056640625 L 0.4985683858394623 0.5000339150428772 L 413.501220703125 0.5000339150428772 C 413.5397644042969 15.95469856262207 414.4084167480469 366.5476989746094 414.2279968261719 445.0050048828125 C 391.7762756347656 442.6033935546875 369.2081604003906 441.3858947753906 347.13818359375 441.3858947753906 C 296.4501953125 441.3858947753906 246.558837890625 447.7603759765625 198.8501281738281 460.3323059082031 C 160.6819763183594 470.3901672363281 123.8173370361328 484.4146728515625 89.28019714355469 502.0161743164063 C 75.71141052246094 508.931396484375 62.47362518310547 516.4222412109375 49.93455505371094 524.2805786132813 C 39.90233993530273 530.5679321289063 30.29219818115234 537.1033935546875 21.37091255187988 543.7055053710938 C 8.973145484924316 552.8804931640625 1.33970844745636 559.66064453125 -1.09489369392395 561.8883056640625 Z" stroke="none"/>
    <path d="M 0.997161865234375 0.99993896484375 L -0.5916748046875 560.75732421875 C 2.515716552734375 557.9641723632813 9.8472900390625 551.6115112304688 21.073486328125 543.3035888671875 C 30.00506591796875 536.69384765625 39.6259765625 530.1510620117188 49.66897583007813 523.8568725585938 C 62.22055053710938 515.9906616210938 75.47128295898438 508.4925231933594 89.05313110351563 501.5706176757813 C 123.6219787597656 483.9529724121094 160.5201263427734 469.9157409667969 198.7227020263672 459.8488159179688 C 246.4729766845703 447.2659606933594 296.4071350097656 440.8858947753906 347.1381225585938 440.8858947753906 C 369.0448913574219 440.8858947753906 391.4418334960938 442.0844421386719 413.7291870117188 444.4490966796875 C 413.9027404785156 365.6173095703125 413.0552368164063 22.21026611328125 413.0024719238281 0.99993896484375 L 0.997161865234375 0.99993896484375 M -3.0517578125e-05 -6.103515625e-05 L 413.9999694824219 -6.103515625e-05 C 413.9999694824219 -6.103515625e-05 414.91796875 365.9559631347656 414.7266235351563 445.5614624023438 C 391.3246154785156 443.0377502441406 368.7615356445313 441.8859252929688 347.1381225585938 441.8859252929688 C 125.1041259765625 441.8859252929688 -1.59814453125 563.0372924804688 -1.59814453125 563.0372924804688 L -3.0517578125e-05 -6.103515625e-05 Z" stroke="none" fill="#707070"/>
  </g>
</svg>
