<svg xmlns="http://www.w3.org/2000/svg" width="44.639" height="37.577" viewBox="0 0 44.639 37.577"><defs><style>.a{fill:none;stroke:#fff;stroke-width:3px;}</style></defs><path class="a" d="M40.907,38.513a16.46,16.46,0,0,1-2.866.967A8.936,8.936,0,0,0,40.4,35.723h0a.469.469,0,0,0-.685-.546h0a16.538,16.538,0,0,1-4.382,1.81,1.117,1.117,0,0,1-.274.034,1.161,1.161,0,0,1-.767-.293,8.962,8.962,0,0,0-5.93-2.238,9.582,9.582,0,0,0-2.839.438,8.682,8.682,0,0,0-5.851,6.256,9.56,9.56,0,0,0-.213,3.3.321.321,0,0,1-.081.251.332.332,0,0,1-.247.112l-.032,0A23.5,23.5,0,0,1,2.948,36.218h0a.469.469,0,0,0-.768.06h0A8.972,8.972,0,0,0,3.638,47.172a8.031,8.031,0,0,1-2.044-.791h0a.469.469,0,0,0-.7.4h0a8.973,8.973,0,0,0,5.234,8.267l-.191,0a8.064,8.064,0,0,1-1.51-.144h0a.469.469,0,0,0-.534.6h0a8.982,8.982,0,0,0,7.095,6.109,16.537,16.537,0,0,1-9.262,2.813H.693a.686.686,0,0,0-.671.517.71.71,0,0,0,.34.784,24.6,24.6,0,0,0,12.36,3.333,24.934,24.934,0,0,0,10.562-2.241,23.324,23.324,0,0,0,7.728-5.791,25.39,25.39,0,0,0,4.732-7.925,25.036,25.036,0,0,0,1.608-8.674V44.3a1.525,1.525,0,0,1,.571-1.187A17.713,17.713,0,0,0,41.487,39.2h0a.469.469,0,0,0-.58-.689Z" transform="translate(1.524 -32.991)"/></svg>